<svg fill="none" xmlns="http://www.w3.org/2000/svg" viewBox="0 0 121 120"><path d="M.5 60c0-26.927 0-40.39 7.724-49.249a31.37 31.37 0 0 1 3.027-3.027C20.111 0 33.573 0 60.5 0c26.927 0 40.39 0 49.249 7.724a31.468 31.468 0 0 1 3.027 3.027C120.5 19.611 120.5 33.073 120.5 60c0 26.927 0 40.39-7.724 49.249a31.564 31.564 0 0 1-3.027 3.027C100.89 120 87.427 120 60.5 120c-26.927 0-40.39 0-49.249-7.724a31.465 31.465 0 0 1-3.027-3.027C.5 100.39.5 86.927.5 60Z" fill="#CF0"/><path d="M20.74 72.18V61.905c11.486 0 19.296-8.7 23.802-15.999C50.17 36.804 62.122 27.13 73.18 27.13v10.274c-6.65 0-15.521 7.151-19.67 13.83-8.36 13.508-20 20.947-32.77 20.947ZM43.417 80.625V70.186c8.99 0 14.963-7.575 17.72-12.089 4.588-7.516 14.34-15.483 23.381-15.483v10.44c-4.255 0-10.977 4.885-14.382 10.438-6.747 11.054-16.221 17.133-26.719 17.133ZM66.094 89.075v-10.07c6.017 0 10.256-5.098 12.25-8.14 3.7-5.638 11.389-11.354 18.93-11.354v10.07c-2.801 0-7.384 3.101-9.615 6.505-5.494 8.377-13.152 12.99-21.565 12.99Z" fill="#201B30"/></svg>