<svg fill="none" xmlns="http://www.w3.org/2000/svg" viewBox="0 0 166 33" shapeRendering="crispEdges"><path d="M0 16.5C0 9.095 0 5.393 2.124 2.957c.258-.296.537-.575.833-.833C5.393 0 9.095 0 16.5 0c7.405 0 11.107 0 13.543 2.124.297.258.575.537.833.833C33 5.393 33 9.095 33 16.5c0 7.405 0 11.107-2.124 13.543a8.617 8.617 0 0 1-.833.833C27.607 33 23.905 33 16.5 33c-7.405 0-11.107 0-13.543-2.124a8.615 8.615 0 0 1-.833-.833C0 27.607 0 23.905 0 16.5Z" fill="#CF0"/><path d="M5.566 19.85v-2.826c3.159 0 5.307-2.393 6.545-4.4 1.548-2.503 4.835-5.163 7.876-5.163v2.825c-1.828 0-4.268 1.966-5.41 3.803-2.298 3.715-5.5 5.76-9.01 5.76ZM11.802 22.172v-2.87c2.473 0 4.115-2.084 4.873-3.325 1.262-2.067 3.944-4.258 6.43-4.258v2.87c-1.17 0-3.019 1.344-3.955 2.871-1.855 3.04-4.461 4.712-7.348 4.712ZM18.038 24.496v-2.77c1.655 0 2.82-1.402 3.37-2.238 1.016-1.55 3.131-3.122 5.205-3.122v2.769c-.77 0-2.03.853-2.644 1.789-1.511 2.303-3.617 3.572-5.93 3.572ZM51.367 24.955c-1.103 0-2.1-.19-2.99-.568-.876-.378-1.57-.923-2.084-1.634-.514-.711-.778-1.55-.793-2.52h3.398c.045.651.271 1.166.68 1.544.422.378.996.567 1.72.567.74 0 1.322-.174 1.745-.521.423-.364.634-.833.634-1.408 0-.469-.143-.855-.43-1.157a2.88 2.88 0 0 0-1.087-.704c-.423-.181-1.012-.378-1.767-.59-1.027-.303-1.865-.598-2.515-.885a4.662 4.662 0 0 1-1.653-1.34c-.453-.605-.68-1.407-.68-2.405 0-.938.234-1.755.703-2.451.468-.696 1.125-1.226 1.97-1.59.846-.378 1.812-.567 2.9-.567 1.63 0 2.952.401 3.963 1.203 1.027.787 1.594 1.892 1.7 3.314h-3.489a1.769 1.769 0 0 0-.702-1.34c-.423-.362-.99-.544-1.699-.544-.62 0-1.117.16-1.495.477-.362.318-.544.78-.544 1.384 0 .424.136.78.408 1.067.287.272.634.5 1.042.681.423.166 1.012.363 1.767.59 1.027.303 1.865.605 2.514.908.65.303 1.208.757 1.676 1.362.468.605.703 1.4.703 2.383a4.49 4.49 0 0 1-.657 2.36c-.438.727-1.08 1.31-1.926 1.748-.845.424-1.85.636-3.012.636ZM58.669 18.509c0-1.302.264-2.436.793-3.405.528-.983 1.26-1.74 2.197-2.27.936-.544 2.008-.817 3.216-.817 1.556 0 2.84.394 3.851 1.18 1.027.772 1.714 1.862 2.061 3.269h-3.42c-.181-.545-.49-.968-.929-1.271-.423-.318-.951-.477-1.585-.477-.906 0-1.624.333-2.152.999-.529.65-.793 1.581-.793 2.792 0 1.195.264 2.126.793 2.791.528.651 1.246.976 2.152.976 1.283 0 2.121-.575 2.514-1.725h3.42c-.347 1.362-1.034 2.444-2.061 3.246S66.416 25 64.876 25c-1.209 0-2.28-.265-3.217-.794a5.771 5.771 0 0 1-2.197-2.27c-.529-.984-.793-2.126-.793-3.427ZM72.069 18.463c0-1.27.249-2.398.747-3.382.513-.983 1.2-1.74 2.061-2.27.876-.529 1.85-.794 2.922-.794.936 0 1.752.19 2.447.568.71.378 1.276.855 1.698 1.43v-1.793h3.194v12.574h-3.194v-1.839c-.407.59-.974 1.082-1.698 1.476-.71.378-1.533.567-2.47.567a5.381 5.381 0 0 1-2.899-.817c-.86-.545-1.548-1.309-2.061-2.292-.498-1-.748-2.141-.748-3.428Zm9.875.046c0-.772-.15-1.43-.453-1.975a3.103 3.103 0 0 0-1.223-1.271 3.202 3.202 0 0 0-1.653-.454c-.59 0-1.133.144-1.631.431-.498.288-.906.711-1.223 1.271-.302.545-.453 1.196-.453 1.952 0 .757.15 1.423.453 1.998.317.56.725.99 1.223 1.293a3.162 3.162 0 0 0 1.63.454 3.33 3.33 0 0 0 1.654-.43 3.3 3.3 0 0 0 1.223-1.272c.302-.56.453-1.226.453-1.997ZM94.963 12.04c1.495 0 2.703.477 3.624 1.43.921.938 1.382 2.255 1.382 3.95v7.376h-3.171V17.85c0-1-.25-1.763-.748-2.293-.498-.545-1.178-.817-2.038-.817-.876 0-1.571.272-2.084.817-.499.53-.748 1.294-.748 2.293v6.945H88.01V12.222h3.171v1.566a4.3 4.3 0 0 1 1.608-1.271 4.975 4.975 0 0 1 2.175-.477ZM109.712 12.04c1.495 0 2.703.477 3.624 1.43.921.938 1.382 2.255 1.382 3.95v7.376h-3.171V17.85c0-1-.25-1.763-.748-2.293-.498-.545-1.178-.817-2.039-.817-.875 0-1.57.272-2.083.817-.499.53-.748 1.294-.748 2.293v6.945h-3.171V12.222h3.171v1.566a4.304 4.304 0 0 1 1.608-1.271 4.98 4.98 0 0 1 2.175-.477ZM116.691 18.463c0-1.27.25-2.398.748-3.382.513-.983 1.2-1.74 2.061-2.27.876-.529 1.85-.794 2.922-.794.936 0 1.752.19 2.446.568.71.378 1.276.855 1.699 1.43v-1.793h3.194v12.574h-3.194v-1.839c-.407.59-.974 1.082-1.699 1.476-.709.378-1.532.567-2.469.567a5.38 5.38 0 0 1-2.899-.817c-.861-.545-1.548-1.309-2.061-2.292-.498-1-.748-2.141-.748-3.428Zm9.876.046c0-.772-.151-1.43-.453-1.975-.302-.56-.709-.983-1.223-1.271a3.199 3.199 0 0 0-1.653-.454c-.589 0-1.133.144-1.631.431-.499.288-.906.711-1.223 1.271-.302.545-.453 1.196-.453 1.952 0 .757.151 1.423.453 1.998.317.56.724.99 1.223 1.293a3.16 3.16 0 0 0 1.631.454c.589 0 1.14-.143 1.653-.43a3.294 3.294 0 0 0 1.223-1.272c.302-.56.453-1.226.453-1.997ZM135.803 14.06c.408-.605.966-1.097 1.676-1.475.725-.379 1.548-.568 2.469-.568 1.072 0 2.039.265 2.9.795.875.53 1.562 1.286 2.061 2.27.513.968.77 2.095.77 3.381 0 1.287-.257 2.429-.77 3.428-.499.983-1.186 1.747-2.061 2.292-.861.545-1.828.817-2.9.817-.936 0-1.759-.181-2.469-.545a4.919 4.919 0 0 1-1.676-1.452v1.793h-3.171V8h3.171v6.06Zm6.637 4.403c0-.756-.159-1.407-.476-1.952a3.105 3.105 0 0 0-1.223-1.27 3.207 3.207 0 0 0-1.631-.432c-.574 0-1.117.151-1.631.454-.498.287-.906.711-1.223 1.271-.302.56-.453 1.218-.453 1.975 0 .756.151 1.415.453 1.974.317.56.725.991 1.223 1.294a3.29 3.29 0 0 0 1.631.431c.589 0 1.133-.151 1.631-.454a3.262 3.262 0 0 0 1.223-1.293c.317-.56.476-1.226.476-1.998ZM150.928 8v16.796h-3.171V8h3.171ZM165.5 18.236c0 .454-.03.863-.091 1.226h-9.173c.075.908.392 1.619.951 2.134.559.514 1.246.771 2.061.771 1.178 0 2.016-.507 2.515-1.52h3.42c-.363 1.21-1.057 2.209-2.084 2.995-1.027.772-2.288 1.158-3.783 1.158-1.208 0-2.295-.265-3.262-.794a5.844 5.844 0 0 1-2.242-2.293c-.529-.983-.793-2.118-.793-3.404 0-1.302.264-2.444.793-3.428a5.53 5.53 0 0 1 2.22-2.27c.951-.529 2.046-.794 3.284-.794 1.193 0 2.258.258 3.194.772a5.317 5.317 0 0 1 2.197 2.202c.529.938.793 2.02.793 3.245Zm-3.284-.908c-.016-.817-.31-1.467-.884-1.951-.574-.5-1.276-.75-2.106-.75-.786 0-1.45.243-1.994.727-.528.469-.853 1.127-.974 1.974h5.958Z" fill="#201B30"/></svg>