<svg width="149" height="34" viewBox="0 0 149 34" fill="none"
    xmlns="http://www.w3.org/2000/svg">
    <path d="M0.810059 17.1027C0.810059 9.51962 0.810059 5.72807 3.00003 3.23325C3.2662 2.93002 3.55292 2.64521 3.85818 2.38081C6.36975 0.205444 10.1867 0.205444 17.8207 0.205444C25.4547 0.205444 29.2717 0.205444 31.7833 2.38081C32.0886 2.64521 32.3753 2.93002 32.6414 3.23325C34.8314 5.72807 34.8314 9.51962 34.8314 17.1027C34.8314 24.6858 34.8314 28.4774 32.6414 30.9722C32.3753 31.2754 32.0886 31.5602 31.7833 31.8246C29.2717 34 25.4547 34 17.8207 34C10.1867 34 6.36975 34 3.85818 31.8246C3.55292 31.5602 3.2662 31.2754 3.00003 30.9722C0.810059 28.4774 0.810059 24.6858 0.810059 17.1027Z" fill="#CCFF00"/>
    <path d="M6.73364 20.5778V17.7192C9.92915 17.7192 12.1023 15.2986 13.3557 13.2679C14.922 10.7352 18.247 8.04364 21.3235 8.04364V10.9022C19.4737 10.9022 17.0053 12.8917 15.851 14.7498C13.525 18.5082 10.2863 20.5778 6.73364 20.5778Z" fill="#0A0F1A"/>
    <path d="M13.0435 22.9279V20.0234C15.5448 20.0234 17.2065 17.916 17.9736 16.6601C19.25 14.5689 21.9633 12.3522 24.4788 12.3522V15.2567C23.2948 15.2567 21.4247 16.6159 20.4773 18.1611C18.6001 21.2363 15.9641 22.9279 13.0435 22.9279Z" fill="#0A0F1A"/>
    <path d="M19.3525 25.2779V22.4763C21.0265 22.4763 22.2058 21.0576 22.761 20.2115C23.7901 18.6426 25.9294 17.0524 28.0276 17.0524V19.854C27.2482 19.854 25.9731 20.7169 25.3525 21.6638C23.824 23.9948 21.6931 25.2779 19.3525 25.2779Z" fill="#0A0F1A"/>
    <path d="M45.7439 22.9603C46.8929 24.7177 49.0558 25.8216 51.6016 25.8216C54.891 25.8216 57.1665 23.8615 57.189 21.0003C57.2115 18.5896 55.7246 17.1026 53.3815 16.2465L52.0973 15.7734C50.4075 15.1651 49.6415 14.737 49.6415 13.7682C49.6415 12.822 50.6779 12.3489 51.7819 12.3489C52.8633 12.3489 53.8771 12.7995 54.6206 13.7232L56.806 11.4927C55.4091 9.96071 53.6969 9.28482 51.7368 9.28482C48.6277 9.28482 46.3297 11.0647 46.3297 14.0836C46.3297 16.269 47.704 17.756 50.2724 18.6572L51.6241 19.1303C53.2012 19.671 53.8771 20.3018 53.8771 21.203C53.8771 22.1267 52.9985 22.7576 51.7143 22.7576C50.4075 22.7576 49.0558 22.0592 48.2672 20.8651L45.7439 22.9603Z" fill="#FFFFFF"/>
    <path d="M68.9565 22.5548L66.2755 21.1129C65.8249 22.1493 64.8561 22.9153 63.617 22.9153C61.9948 22.9153 60.7557 21.6536 60.7557 19.9188C60.7557 18.1841 61.9948 16.9224 63.617 16.9224C64.8561 16.9224 65.8249 17.6884 66.2755 18.7248L68.9565 17.2829C67.9877 15.3453 65.9601 14.0386 63.617 14.0386C60.2826 14.0386 57.6466 16.5169 57.6466 19.9188C57.6466 23.3208 60.2826 25.7991 63.617 25.7991C65.9601 25.7991 67.9877 24.4924 68.9565 22.5548Z" fill="#FFFFFF"/>
    <path d="M77.5317 24.7177V25.5513H80.6183V14.2864H77.5317V15.0975C76.8784 14.4667 75.8645 14.0386 74.6479 14.0386C71.3135 14.0386 69.0831 16.7647 69.0831 19.9188C69.0831 23.073 71.3135 25.7991 74.6479 25.7991C75.8645 25.7991 76.8784 25.371 77.5317 24.7177ZM72.2823 19.9188C72.2823 18.2516 73.4313 16.8548 75.0985 16.8548C76.2926 16.8548 77.0135 17.373 77.5317 18.0714V21.7437C77.0135 22.4647 76.2926 22.9829 75.0985 22.9829C73.4313 22.9829 72.2823 21.586 72.2823 19.9188Z" fill="#FFFFFF"/>
    <path d="M82.4726 25.5513H85.5592V18.139C86.0323 17.3955 86.9109 16.8548 87.9473 16.8548C89.3441 16.8548 90.0426 17.9362 90.0426 19.5358V25.5513H93.1291V19.0176C93.1291 16.0212 91.4619 14.0386 88.6232 14.0386C87.3841 14.0386 86.2801 14.4667 85.5592 15.2327V14.2864H82.4726V25.5513Z" fill="#FFFFFF"/>
    <path d="M94.8331 25.5513H97.9197V18.139C98.3928 17.3955 99.2715 16.8548 100.308 16.8548C101.705 16.8548 102.403 17.9362 102.403 19.5358V25.5513H105.49V19.0176C105.49 16.0212 103.822 14.0386 100.984 14.0386C99.7446 14.0386 98.6406 14.4667 97.9197 15.2327V14.2864H94.8331V25.5513Z" fill="#FFFFFF"/>
    <path d="M114.921 24.7177V25.5513H118.008V14.2864H114.921V15.0975C114.268 14.4667 113.254 14.0386 112.038 14.0386C108.703 14.0386 106.473 16.7647 106.473 19.9188C106.473 23.073 108.703 25.7991 112.038 25.7991C113.254 25.7991 114.268 25.371 114.921 24.7177ZM109.672 19.9188C109.672 18.2516 110.821 16.8548 112.488 16.8548C113.682 16.8548 114.403 17.373 114.921 18.0714V21.7437C114.403 22.4647 113.682 22.9829 112.488 22.9829C110.821 22.9829 109.672 21.586 109.672 19.9188Z" fill="#FFFFFF"/>
    <path d="M131.397 19.9188C131.397 16.7647 129.167 14.0386 125.833 14.0386C124.638 14.0386 123.602 14.4667 122.949 15.0975V9.10458H119.862V25.5513H122.949V24.7177C123.602 25.371 124.638 25.7991 125.833 25.7991C129.167 25.7991 131.397 23.073 131.397 19.9188ZM122.949 21.7437V18.0714C123.467 17.373 124.188 16.8548 125.382 16.8548C127.072 16.8548 128.221 18.2516 128.221 19.9188C128.221 21.586 127.072 22.9829 125.382 22.9829C124.188 22.9829 123.467 22.4647 122.949 21.7437Z" fill="#FFFFFF"/>
    <path d="M132.553 25.5513H135.639V9.10458H132.553V25.5513Z" fill="#FFFFFF"/>
    <path d="M136.756 19.9188C136.756 23.4785 139.369 25.7991 142.726 25.7991C145.092 25.7991 146.917 24.7853 147.953 23.2758L145.655 21.5635C145.159 22.3295 144.146 22.9829 142.749 22.9829C141.262 22.9829 139.932 22.1493 139.752 20.6398H148.178C148.223 20.1667 148.223 19.8512 148.223 19.5809C148.223 15.9311 145.632 14.0386 142.681 14.0386C139.257 14.0386 136.756 16.5844 136.756 19.9188ZM142.591 16.5844C143.74 16.5844 144.866 17.2153 145.137 18.5445H139.865C140.158 17.1702 141.442 16.5844 142.591 16.5844Z" fill="#FFFFFF"/>
</svg>
